<?xml version="1.0" encoding="utf-8"?>
<!-- Generator: Adobe Illustrator 20.1.0, SVG Export Plug-In . SVG Version: 6.00 Build 0)  -->
<svg version="1.1" id="Layer_1" xmlns="http://www.w3.org/2000/svg" xmlns:xlink="http://www.w3.org/1999/xlink" x="0px" y="0px"
	 viewBox="0 0 13 7" style="enable-background:new 0 0 13 7;" xml:space="preserve">
<style type="text/css">
	.st0{fill:url(#Shape_1_);}
</style>
<title>back</title>
<desc>Created with Sketch.</desc>
<g id="Page-1">
	<g id="start-2" transform="translate(-1328.000000, -553.000000)">
		
			<g id="back" transform="translate(1334.937500, 556.562500) rotate(-90.000000) translate(-1334.937500, -556.562500) translate(1331.437500, 549.562500)">
			<g id="Capa_1">
				
					<linearGradient id="Shape_1_" gradientUnits="userSpaceOnUse" x1="-690.3687" y1="-691.097" x2="-691.2787" y2="-692.9205" gradientTransform="matrix(6.9765 0 0 13.1023 4826.8608 9065.1855)">
					<stop  offset="0" style="stop-color:#F64848"/>
					<stop  offset="1" style="stop-color:#F095FF"/>
				</linearGradient>
				<path id="Shape" class="st0" d="M0.9,6.5l6-5.9C7,0.5,7,0.3,6.9,0.1C6.8-0.1,6.5,0,6.4,0.1L0.2,6.3C0,6.4,0,6.7,0.1,6.8L6.3,13
					c0.1,0.1,0.2,0.1,0.3,0.1s0.2,0,0.3-0.1c0.1-0.2,0.1-0.4,0-0.5L0.9,6.5L0.9,6.5z"/>
			</g>
		</g>
	</g>
</g>
</svg>
