<?xml version="1.0" encoding="UTF-8" standalone="no"?>
<svg width="30px" height="24px" viewBox="0 0 30 24" version="1.1" xmlns="http://www.w3.org/2000/svg" xmlns:xlink="http://www.w3.org/1999/xlink">
    <!-- Generator: Sketch 40.3 (33839) - http://www.bohemiancoding.com/sketch -->
    <title>speaker</title>
    <desc>Created with Sketch.</desc>
    <defs></defs>
    <g id="Page-1" stroke="none" stroke-width="1" fill="none" fill-rule="evenodd">
        <g id="start-1" transform="translate(-47.000000, -1014.000000)" fill="#FFFFFF">
            <g id="speaker" transform="translate(47.000000, 1014.000000)">
                <g id="Capa_1">
                    <g id="Group">
                        <path d="M14.202,0.879 C13.7145,0.603 13.1365,0.612 12.657,0.901 C12.634,0.9145 12.612,0.9305 12.592,0.9475 L5.817,6.679 L0.5,6.679 C0.2235,6.679 0,6.9025 0,7.179 L0,16.679 C0,16.812 0.0525,16.939 0.1465,17.0325 C0.2405,17.126 0.367,17.179 0.5,17.179 L5.805,17.1765 L12.5765,23.3965 C12.6015,23.4195 12.6285,23.4395 12.657,23.4565 C12.903,23.605 13.1755,23.6795 13.448,23.6795 C13.7065,23.679 13.9645,23.6125 14.202,23.4785 C14.7015,23.1965 15,22.6815 15,22.1005 L15,2.257 C15,1.6765 14.7015,1.1615 14.202,0.879 L14.202,0.879 Z M14,22.1005 C14,22.316 13.8915,22.5055 13.7105,22.608 C13.633,22.6515 13.4365,22.7355 13.2105,22.621 L6.5,16.4565 L6.5,14.1785 C6.5,13.902 6.2765,13.6785 6,13.6785 C5.7235,13.6785 5.5,13.902 5.5,14.1785 L5.5,16.1765 L1,16.1785 L1,7.6785 L5.5,7.6785 L5.5,9.6785 C5.5,9.955 5.7235,10.1785 6,10.1785 C6.2765,10.1785 6.5,9.955 6.5,9.6785 L6.5,7.4105 L13.2025,1.7405 C13.433,1.6195 13.633,1.7055 13.7105,1.7495 C13.8915,1.852 14,2.0415 14,2.257 L14,22.1005 L14,22.1005 Z" id="Shape"></path>
                        <path d="M26.013,11.929 C26.013,7.7555 23.355,4.049 19.3985,2.7055 C19.1375,2.617 18.853,2.757 18.764,3.0185 C18.6755,3.2795 18.8155,3.564 19.077,3.653 C22.6275,4.8585 25.013,8.1845 25.013,11.9295 C25.013,15.671 22.632,18.9975 19.0885,20.2065 C18.8275,20.2955 18.6875,20.5795 18.777,20.8415 C18.848,21.049 19.042,21.18 19.25,21.18 C19.3035,21.18 19.358,21.1715 19.4115,21.153 C23.3605,19.8055 26.013,16.099 26.013,11.929 L26.013,11.929 Z" id="Shape"></path>
                        <path d="M22.2265,0.187 C21.9725,0.0805 21.679,0.1975 21.5705,0.452 C21.463,0.7065 21.5815,1 21.836,1.108 C26.188,2.9545 29,7.2025 29,11.929 C29,16.8175 26.053,21.119 21.4925,22.886 C21.235,22.986 21.107,23.2755 21.207,23.533 C21.2835,23.731 21.473,23.8525 21.6735,23.8525 C21.7335,23.8525 21.7945,23.842 21.854,23.819 C26.8025,21.9005 30,17.2335 30,11.929 C30,6.8 26.9485,2.191 22.2265,0.187 L22.2265,0.187 Z" id="Shape"></path>
                        <path d="M21.513,11.929 C21.513,8.943 19.5085,6.278 16.6385,5.448 C16.3735,5.3725 16.0965,5.524 16.0195,5.79 C15.943,6.055 16.0955,6.3325 16.3615,6.409 C18.806,7.1155 20.5135,9.3855 20.5135,11.929 C20.5135,14.4725 18.806,16.7425 16.3615,17.449 C16.096,17.5255 15.943,17.803 16.0195,18.068 C16.083,18.287 16.2825,18.4295 16.5,18.4295 C16.546,18.4295 16.5925,18.423 16.6385,18.41 C19.509,17.5795 21.513,14.9145 21.513,11.929 L21.513,11.929 Z" id="Shape"></path>
                    </g>
                </g>
            </g>
        </g>
    </g>
</svg>