<?xml version="1.0" encoding="UTF-8" standalone="no"?>
<svg width="30px" height="25px" viewBox="0 0 30 25" version="1.1" xmlns="http://www.w3.org/2000/svg" xmlns:xlink="http://www.w3.org/1999/xlink">
    <!-- Generator: Sketch 40.3 (33839) - http://www.bohemiancoding.com/sketch -->
    <title>twitter</title>
    <desc>Created with Sketch.</desc>
    <defs></defs>
    <g id="Page-1" stroke="none" stroke-width="1" fill="none" fill-rule="evenodd">
        <g id="start-1" transform="translate(-1263.000000, -81.000000)" fill="#FFFFFF">
            <g id="twitter" transform="translate(1263.000000, 81.000000)">
                <g id="twitter-black-shape">
                    <g id="Capa_1">
                        <path d="M29.9970732,2.9040133 C28.8195565,3.4104878 27.6417738,3.72678492 26.4647894,3.85383592 C27.7941685,3.05620843 28.6933703,1.92937916 29.1618625,0.473414634 C27.9458315,1.19494457 26.6483149,1.68858093 25.2683814,1.9545898 C24.052816,0.663192905 22.5590687,0.0172283814 20.7861419,0.0172283814 C19.0897783,0.0172283814 17.6433925,0.615365854 16.4464523,1.81190687 C15.2501774,3.00838137 14.6519734,4.45476718 14.6519734,6.15126386 C14.6519734,6.60698448 14.7025277,7.07560976 14.8039024,7.55667406 C12.2969401,7.43008869 9.94523282,6.80022173 7.74838137,5.66707317 C5.55166297,4.53379157 3.68733925,3.02394678 2.1554102,1.1375388 C1.59831486,2.08689579 1.31966741,3.1189357 1.31966741,4.23305987 C1.31966741,5.28392461 1.56651885,6.25895787 2.06055432,7.15789357 C2.55425721,8.05669623 3.21911308,8.78461197 4.05478936,9.34177384 C3.067051,9.30372506 2.14283814,9.044102 1.28201774,8.56297118 L1.28201774,8.6389357 C1.28201774,10.1203769 1.74731707,11.42102 2.67778271,12.5418625 C3.60838137,13.6625721 4.78277162,14.3680044 6.20068736,14.659357 C5.66886918,14.7984479 5.13066519,14.8680931 4.58634146,14.8680931 C4.23179601,14.8680931 3.84558758,14.8364967 3.42784922,14.7736364 C3.82031042,16.0015078 4.54203991,17.0108647 5.59277162,17.8025721 C6.64370288,18.5938803 7.83385809,19.0017738 9.16330377,19.0277162 C6.93505543,20.7746341 4.39656319,21.6480931 1.54782705,21.6480931 C1.00330377,21.6480931 0.509667406,21.6232816 0.0664523282,21.5723282 C2.91525499,23.4079823 6.05514412,24.3258093 9.48631929,24.3258093 C11.6640133,24.3258093 13.7088027,23.9811752 15.6200222,23.2909756 C17.5321729,22.6012417 19.1652772,21.6767627 20.520133,20.518071 C21.8745898,19.3596452 23.0428603,18.0270732 24.0239468,16.5204878 C25.0050998,15.0137694 25.7360089,13.4407982 26.2175388,11.8012417 C26.6984701,10.1613525 26.9391353,8.5189357 26.9391353,6.87272727 C26.9391353,6.51818182 26.9327494,6.25243902 26.9200443,6.07509978 C28.1231707,5.20190687 29.1486918,4.14452328 29.9970732,2.9040133 L29.9970732,2.9040133 Z" id="Shape"></path>
                    </g>
                </g>
            </g>
        </g>
    </g>
</svg>