<?xml version="1.0" encoding="UTF-8" standalone="no"?>
<svg width="30px" height="30px" viewBox="0 0 30 30" version="1.1" xmlns="http://www.w3.org/2000/svg" xmlns:xlink="http://www.w3.org/1999/xlink">
    <!-- Generator: Sketch 40.3 (33839) - http://www.bohemiancoding.com/sketch -->
    <title>dribble</title>
    <desc>Created with Sketch.</desc>
    <defs></defs>
    <g id="Page-1" stroke="none" stroke-width="1" fill="none" fill-rule="evenodd">
        <g id="start-1" transform="translate(-1318.000000, -78.000000)" fill="#FFFFFF">
            <g id="dribble" transform="translate(1318.000000, 78.000000)">
                <g id="dribbble-logo">
                    <g id="Capa_1">
                        <path d="M27.9589749,7.46261959 C26.6190205,5.16703872 24.8014579,3.34947608 22.5058087,2.00958998 C20.2097494,0.66977221 17.7032802,0 14.9844875,0 C12.2659681,0 9.75874715,0.66977221 7.46309795,2.00958998 C5.16731207,3.34927107 3.34974943,5.16683371 2.00979499,7.46261959 C0.66977221,9.75854214 0,12.2657631 0,14.9840774 C0,17.7025285 0.669977221,20.2093394 2.00958998,22.5053986 C3.34947608,24.8009795 5.16703872,26.6185421 7.4628246,27.9585649 C9.75874715,29.2983144 12.2657631,29.9681549 14.9842141,29.9681549 C17.7026651,29.9681549 20.2099544,29.2983144 22.5057403,27.9585649 C24.8013895,26.6190205 26.6188838,24.8009795 27.9587016,22.5053986 C29.2983144,20.2095444 29.9680182,17.7023918 29.9680182,14.9840774 C29.9680866,12.2654897 29.2983144,9.75820046 27.9589749,7.46261959 L27.9589749,7.46261959 Z M14.9842825,2.1852164 C18.2098633,2.1852164 21.0259681,3.25175399 23.4321868,5.38476082 L23.1882916,5.72596811 C23.0907745,5.86277904 22.8468793,6.12587699 22.4568109,6.51628702 C22.0666743,6.90635535 21.6406606,7.27728929 21.1789749,7.62840547 C20.7168793,7.97965831 20.0896811,8.3795672 19.2959453,8.82833713 C18.5024829,9.27710706 17.6570843,9.67079727 16.7594761,10.0089294 C15.2637813,7.25118451 13.6640774,4.76685649 11.9600911,2.55580866 C12.9878132,2.30870159 13.9957859,2.1852164 14.9842825,2.1852164 L14.9842825,2.1852164 Z M4.956082,7.0428246 C6.2046697,5.46929385 7.72626424,4.2594533 9.5214123,3.41412301 C11.1342369,5.56025057 12.7209567,8.01874715 14.2819134,10.7891344 C10.3277904,11.8297039 6.38678815,12.3500228 2.45863326,12.3498178 C2.87507973,10.385877 3.70749431,8.61669704 4.956082,7.0428246 L4.956082,7.0428246 Z M3.04373576,19.5986788 C2.47134396,18.1354442 2.1852164,16.5971071 2.1852164,14.9840774 C2.1852164,14.8018907 2.19191344,14.6652847 2.20476082,14.574328 C6.91353075,14.574328 11.2905239,13.9696811 15.335672,12.7597722 C15.7519818,13.5661503 16.0966743,14.2880638 16.3698178,14.9255809 C16.3171298,14.951549 16.2332118,14.9806606 16.116082,15.0132574 C15.9986105,15.0457859 15.9142825,15.0683371 15.8617995,15.0815262 L15.1400911,15.3351253 C14.6456036,15.5173121 13.9983144,15.8295444 13.1987016,16.271549 C12.3988838,16.7142369 11.550205,17.2407062 10.6526651,17.8521868 C9.75512528,18.4637358 8.82833713,19.2733941 7.87243736,20.2817768 C6.91640091,21.2897494 6.11323462,22.3722779 5.46287016,23.5298405 C4.42230068,22.3722779 3.61599089,21.0615034 3.04373576,19.5986788 L3.04373576,19.5986788 Z M14.9842825,27.7831435 C11.9405467,27.7831435 9.22209567,26.8074943 6.82872437,24.8566059 L7.1214123,25.0713212 C7.57660592,24.0694989 8.24637813,23.1069021 9.13107062,22.1835991 C10.0156264,21.2602961 10.8675171,20.5152847 11.6869476,19.9493166 C12.5063781,19.3838952 13.3972893,18.8506606 14.3599544,18.3492711 C15.3224146,17.8488383 15.9789294,17.5298405 16.3304556,17.393713 C16.6817084,17.2571754 16.9614123,17.1496128 17.1694989,17.0714351 L17.2083144,17.0518223 L17.2476082,17.0518223 C18.5218907,20.3946014 19.4328246,23.6335763 19.9789066,26.7682688 C18.3660137,27.4449431 16.7013895,27.7829385 14.9842825,27.7831435 L14.9842825,27.7831435 Z M25.7546241,21.900615 C24.7920273,23.3900911 23.5886105,24.6227563 22.145262,25.5979271 C21.611549,22.6064009 20.7795444,19.5558998 19.6476082,16.4474487 C22.2360137,16.0437813 24.8958998,16.2327335 27.6274032,17.0128702 C27.341139,18.7818451 26.7167426,20.4114123 25.7546241,21.900615 L25.7546241,21.900615 Z M27.5881093,14.8085194 C27.4580638,14.7826879 27.2952847,14.7531663 27.1002506,14.7208428 C26.9052164,14.6885194 26.6676082,14.6492938 26.3879043,14.6037813 C26.1086105,14.5582688 25.7959681,14.5161048 25.451549,14.4770159 C25.1067882,14.4379954 24.7394077,14.4023235 24.348861,14.369795 C23.9587927,14.3371298 23.5424829,14.3113667 23.1004784,14.2916856 C22.6577221,14.2722779 22.2092255,14.2624374 21.7538952,14.2624374 C21.2990433,14.2624374 20.820615,14.2756264 20.3201139,14.3014579 C19.8194761,14.3270843 19.3351025,14.3731435 18.8669248,14.4380638 C18.827631,14.3729385 18.7789749,14.2655809 18.7204784,14.1159226 C18.6620501,13.9664692 18.6194077,13.8524829 18.5941913,13.7744419 C18.3467426,13.2281549 18.0604784,12.6102506 17.7349886,11.9210706 C18.6325285,11.5566287 19.4879727,11.1373121 20.3013895,10.6624374 C21.1140547,10.1875626 21.7639408,9.76510251 22.2520046,9.39444191 C22.7398633,9.0233713 23.201549,8.6298861 23.6371982,8.21378132 C24.0731207,7.7976082 24.3556264,7.50833713 24.4861503,7.34569476 C24.6164009,7.18277904 24.7398861,7.02355353 24.8568109,6.86767654 L24.8764237,6.84799544 C26.7753759,9.1632574 27.7448064,11.8295672 27.7833485,14.8474715 L27.5881093,14.8085194 L27.5881093,14.8085194 Z" id="Shape"></path>
                    </g>
                </g>
            </g>
        </g>
    </g>
</svg>